<mxfile host="65bd71144e">
    <diagram id="CKsTaNWD0P1iZ0fZwkxA" name="Index 与 DiskANN 交互">
        <mxGraphModel dx="1002" dy="571" grid="1" gridSize="10" guides="1" tooltips="1" connect="1" arrows="1" fold="1" page="1" pageScale="1" pageWidth="1169" pageHeight="827" math="0" shadow="0">
            <root>
                <mxCell id="0"/>
                <mxCell id="1" parent="0"/>
                <mxCell id="i95NXzqm7Kv1Y7omc5p2-29" value="Actor" style="shape=umlActor;verticalLabelPosition=bottom;verticalAlign=top;html=1;outlineConnect=0;" parent="1" vertex="1">
                    <mxGeometry x="220" y="190" width="30" height="60" as="geometry"/>
                </mxCell>
                <mxCell id="i95NXzqm7Kv1Y7omc5p2-33" value="" style="endArrow=none;html=1;" parent="1" edge="1">
                    <mxGeometry width="50" height="50" relative="1" as="geometry">
                        <mxPoint x="235" y="750" as="sourcePoint"/>
                        <mxPoint x="235" y="250" as="targetPoint"/>
                    </mxGeometry>
                </mxCell>
                <mxCell id="i95NXzqm7Kv1Y7omc5p2-35" value="Actor" style="shape=umlActor;verticalLabelPosition=bottom;verticalAlign=top;html=1;outlineConnect=0;" parent="1" vertex="1">
                    <mxGeometry x="570" y="191" width="30" height="60" as="geometry"/>
                </mxCell>
                <mxCell id="i95NXzqm7Kv1Y7omc5p2-36" value="" style="endArrow=none;html=1;" parent="1" edge="1">
                    <mxGeometry width="50" height="50" relative="1" as="geometry">
                        <mxPoint x="585" y="751" as="sourcePoint"/>
                        <mxPoint x="585" y="251" as="targetPoint"/>
                    </mxGeometry>
                </mxCell>
                <mxCell id="i95NXzqm7Kv1Y7omc5p2-37" value="Index" style="text;html=1;strokeColor=none;fillColor=none;align=center;verticalAlign=middle;whiteSpace=wrap;rounded=0;" parent="1" vertex="1">
                    <mxGeometry x="205" y="160" width="60" height="30" as="geometry"/>
                </mxCell>
                <mxCell id="i95NXzqm7Kv1Y7omc5p2-38" value="DiskANN" style="text;html=1;strokeColor=none;fillColor=none;align=center;verticalAlign=middle;whiteSpace=wrap;rounded=0;" parent="1" vertex="1">
                    <mxGeometry x="555" y="160" width="60" height="30" as="geometry"/>
                </mxCell>
                <mxCell id="i95NXzqm7Kv1Y7omc5p2-39" value="" style="endArrow=classic;html=1;" parent="1" edge="1">
                    <mxGeometry width="50" height="50" relative="1" as="geometry">
                        <mxPoint x="240" y="320" as="sourcePoint"/>
                        <mxPoint x="580" y="320" as="targetPoint"/>
                    </mxGeometry>
                </mxCell>
                <mxCell id="i95NXzqm7Kv1Y7omc5p2-40" value="PushData Request" style="text;html=1;strokeColor=none;fillColor=none;align=center;verticalAlign=middle;whiteSpace=wrap;rounded=0;" parent="1" vertex="1">
                    <mxGeometry x="340" y="290" width="110" height="30" as="geometry"/>
                </mxCell>
                <mxCell id="i95NXzqm7Kv1Y7omc5p2-41" value="" style="endArrow=classic;html=1;" parent="1" edge="1">
                    <mxGeometry width="50" height="50" relative="1" as="geometry">
                        <mxPoint x="580" y="360" as="sourcePoint"/>
                        <mxPoint x="240" y="360" as="targetPoint"/>
                    </mxGeometry>
                </mxCell>
                <mxCell id="i95NXzqm7Kv1Y7omc5p2-42" value="PushData Response" style="text;html=1;strokeColor=none;fillColor=none;align=center;verticalAlign=middle;whiteSpace=wrap;rounded=0;" parent="1" vertex="1">
                    <mxGeometry x="339" y="330" width="131" height="30" as="geometry"/>
                </mxCell>
                <mxCell id="i95NXzqm7Kv1Y7omc5p2-43" value="" style="endArrow=classic;html=1;" parent="1" edge="1">
                    <mxGeometry width="50" height="50" relative="1" as="geometry">
                        <mxPoint x="237" y="481.9999999999999" as="sourcePoint"/>
                        <mxPoint x="576.9999999999998" y="481.9999999999999" as="targetPoint"/>
                    </mxGeometry>
                </mxCell>
                <mxCell id="i95NXzqm7Kv1Y7omc5p2-44" value="PushData Request" style="text;html=1;strokeColor=none;fillColor=none;align=center;verticalAlign=middle;whiteSpace=wrap;rounded=0;" parent="1" vertex="1">
                    <mxGeometry x="337" y="452" width="110" height="30" as="geometry"/>
                </mxCell>
                <mxCell id="i95NXzqm7Kv1Y7omc5p2-45" value="" style="endArrow=classic;html=1;" parent="1" edge="1">
                    <mxGeometry width="50" height="50" relative="1" as="geometry">
                        <mxPoint x="576.9999999999998" y="521.9999999999999" as="sourcePoint"/>
                        <mxPoint x="237" y="521.9999999999999" as="targetPoint"/>
                    </mxGeometry>
                </mxCell>
                <mxCell id="i95NXzqm7Kv1Y7omc5p2-46" value="PushData Response" style="text;html=1;strokeColor=none;fillColor=none;align=center;verticalAlign=middle;whiteSpace=wrap;rounded=0;" parent="1" vertex="1">
                    <mxGeometry x="336" y="492" width="131" height="30" as="geometry"/>
                </mxCell>
                <mxCell id="i95NXzqm7Kv1Y7omc5p2-47" value="&lt;font style=&quot;font-size: 22px;&quot;&gt;.&lt;br&gt;.&lt;br&gt;.&lt;/font&gt;" style="text;html=1;strokeColor=none;fillColor=none;align=center;verticalAlign=middle;whiteSpace=wrap;rounded=0;" parent="1" vertex="1">
                    <mxGeometry x="365" y="390" width="60" height="40" as="geometry"/>
                </mxCell>
            </root>
        </mxGraphModel>
    </diagram>
    <diagram name="Index 与 DiskANN 交互 多个" id="890vanNXvDQpQVHvsPO6">
        <mxGraphModel dx="1002" dy="571" grid="1" gridSize="10" guides="1" tooltips="1" connect="1" arrows="1" fold="1" page="1" pageScale="1" pageWidth="1169" pageHeight="827" math="0" shadow="0">
            <root>
                <mxCell id="_GKx4WZQEgGPNWmIFQ_N-0"/>
                <mxCell id="_GKx4WZQEgGPNWmIFQ_N-1" parent="_GKx4WZQEgGPNWmIFQ_N-0"/>
                <mxCell id="_GKx4WZQEgGPNWmIFQ_N-2" value="Actor" style="shape=umlActor;verticalLabelPosition=bottom;verticalAlign=top;html=1;outlineConnect=0;" parent="_GKx4WZQEgGPNWmIFQ_N-1" vertex="1">
                    <mxGeometry x="220" y="190" width="30" height="60" as="geometry"/>
                </mxCell>
                <mxCell id="_GKx4WZQEgGPNWmIFQ_N-3" value="" style="endArrow=none;html=1;" parent="_GKx4WZQEgGPNWmIFQ_N-1" edge="1">
                    <mxGeometry width="50" height="50" relative="1" as="geometry">
                        <mxPoint x="235" y="750" as="sourcePoint"/>
                        <mxPoint x="235" y="250" as="targetPoint"/>
                    </mxGeometry>
                </mxCell>
                <mxCell id="_GKx4WZQEgGPNWmIFQ_N-4" value="Actor" style="shape=umlActor;verticalLabelPosition=bottom;verticalAlign=top;html=1;outlineConnect=0;" parent="_GKx4WZQEgGPNWmIFQ_N-1" vertex="1">
                    <mxGeometry x="570" y="191" width="30" height="60" as="geometry"/>
                </mxCell>
                <mxCell id="_GKx4WZQEgGPNWmIFQ_N-5" value="" style="endArrow=none;html=1;" parent="_GKx4WZQEgGPNWmIFQ_N-1" edge="1">
                    <mxGeometry width="50" height="50" relative="1" as="geometry">
                        <mxPoint x="585" y="751" as="sourcePoint"/>
                        <mxPoint x="585" y="251" as="targetPoint"/>
                    </mxGeometry>
                </mxCell>
                <mxCell id="_GKx4WZQEgGPNWmIFQ_N-6" value="Index1" style="text;html=1;strokeColor=none;fillColor=none;align=center;verticalAlign=middle;whiteSpace=wrap;rounded=0;" parent="_GKx4WZQEgGPNWmIFQ_N-1" vertex="1">
                    <mxGeometry x="205" y="160" width="60" height="30" as="geometry"/>
                </mxCell>
                <mxCell id="_GKx4WZQEgGPNWmIFQ_N-7" value="DiskANN" style="text;html=1;strokeColor=none;fillColor=none;align=center;verticalAlign=middle;whiteSpace=wrap;rounded=0;" parent="_GKx4WZQEgGPNWmIFQ_N-1" vertex="1">
                    <mxGeometry x="555" y="160" width="60" height="30" as="geometry"/>
                </mxCell>
                <mxCell id="_GKx4WZQEgGPNWmIFQ_N-8" value="" style="endArrow=classic;html=1;" parent="_GKx4WZQEgGPNWmIFQ_N-1" edge="1">
                    <mxGeometry width="50" height="50" relative="1" as="geometry">
                        <mxPoint x="240" y="320" as="sourcePoint"/>
                        <mxPoint x="580" y="320" as="targetPoint"/>
                    </mxGeometry>
                </mxCell>
                <mxCell id="_GKx4WZQEgGPNWmIFQ_N-9" value="PushData Request" style="text;html=1;strokeColor=none;fillColor=none;align=center;verticalAlign=middle;whiteSpace=wrap;rounded=0;" parent="_GKx4WZQEgGPNWmIFQ_N-1" vertex="1">
                    <mxGeometry x="340" y="290" width="110" height="30" as="geometry"/>
                </mxCell>
                <mxCell id="_GKx4WZQEgGPNWmIFQ_N-10" value="" style="endArrow=classic;html=1;" parent="_GKx4WZQEgGPNWmIFQ_N-1" edge="1">
                    <mxGeometry width="50" height="50" relative="1" as="geometry">
                        <mxPoint x="580" y="360" as="sourcePoint"/>
                        <mxPoint x="240" y="360" as="targetPoint"/>
                    </mxGeometry>
                </mxCell>
                <mxCell id="_GKx4WZQEgGPNWmIFQ_N-11" value="PushData Response" style="text;html=1;strokeColor=none;fillColor=none;align=center;verticalAlign=middle;whiteSpace=wrap;rounded=0;" parent="_GKx4WZQEgGPNWmIFQ_N-1" vertex="1">
                    <mxGeometry x="339" y="330" width="131" height="30" as="geometry"/>
                </mxCell>
                <mxCell id="_GKx4WZQEgGPNWmIFQ_N-12" value="" style="endArrow=classic;html=1;" parent="_GKx4WZQEgGPNWmIFQ_N-1" edge="1">
                    <mxGeometry width="50" height="50" relative="1" as="geometry">
                        <mxPoint x="237" y="481.9999999999999" as="sourcePoint"/>
                        <mxPoint x="576.9999999999998" y="481.9999999999999" as="targetPoint"/>
                    </mxGeometry>
                </mxCell>
                <mxCell id="_GKx4WZQEgGPNWmIFQ_N-13" value="PushData Request" style="text;html=1;strokeColor=none;fillColor=none;align=center;verticalAlign=middle;whiteSpace=wrap;rounded=0;" parent="_GKx4WZQEgGPNWmIFQ_N-1" vertex="1">
                    <mxGeometry x="337" y="452" width="110" height="30" as="geometry"/>
                </mxCell>
                <mxCell id="_GKx4WZQEgGPNWmIFQ_N-14" value="" style="endArrow=classic;html=1;" parent="_GKx4WZQEgGPNWmIFQ_N-1" edge="1">
                    <mxGeometry width="50" height="50" relative="1" as="geometry">
                        <mxPoint x="576.9999999999998" y="521.9999999999999" as="sourcePoint"/>
                        <mxPoint x="237" y="521.9999999999999" as="targetPoint"/>
                    </mxGeometry>
                </mxCell>
                <mxCell id="_GKx4WZQEgGPNWmIFQ_N-15" value="PushData Response" style="text;html=1;strokeColor=none;fillColor=none;align=center;verticalAlign=middle;whiteSpace=wrap;rounded=0;" parent="_GKx4WZQEgGPNWmIFQ_N-1" vertex="1">
                    <mxGeometry x="336" y="492" width="131" height="30" as="geometry"/>
                </mxCell>
                <mxCell id="_GKx4WZQEgGPNWmIFQ_N-16" value="&lt;font style=&quot;font-size: 22px;&quot;&gt;.&lt;br&gt;.&lt;br&gt;.&lt;/font&gt;" style="text;html=1;strokeColor=none;fillColor=none;align=center;verticalAlign=middle;whiteSpace=wrap;rounded=0;" parent="_GKx4WZQEgGPNWmIFQ_N-1" vertex="1">
                    <mxGeometry x="365" y="390" width="60" height="40" as="geometry"/>
                </mxCell>
                <mxCell id="V0m47npN4N563cn-UdCl-0" value="Actor" style="shape=umlActor;verticalLabelPosition=bottom;verticalAlign=top;html=1;outlineConnect=0;" parent="_GKx4WZQEgGPNWmIFQ_N-1" vertex="1">
                    <mxGeometry x="898" y="190" width="30" height="60" as="geometry"/>
                </mxCell>
                <mxCell id="V0m47npN4N563cn-UdCl-1" value="" style="endArrow=none;html=1;" parent="_GKx4WZQEgGPNWmIFQ_N-1" edge="1">
                    <mxGeometry width="50" height="50" relative="1" as="geometry">
                        <mxPoint x="913" y="750" as="sourcePoint"/>
                        <mxPoint x="913" y="250" as="targetPoint"/>
                    </mxGeometry>
                </mxCell>
                <mxCell id="V0m47npN4N563cn-UdCl-2" value="Index2" style="text;html=1;strokeColor=none;fillColor=none;align=center;verticalAlign=middle;whiteSpace=wrap;rounded=0;" parent="_GKx4WZQEgGPNWmIFQ_N-1" vertex="1">
                    <mxGeometry x="883" y="160" width="60" height="30" as="geometry"/>
                </mxCell>
                <mxCell id="V0m47npN4N563cn-UdCl-3" value="" style="endArrow=classic;html=1;" parent="_GKx4WZQEgGPNWmIFQ_N-1" edge="1">
                    <mxGeometry width="50" height="50" relative="1" as="geometry">
                        <mxPoint x="587" y="370" as="sourcePoint"/>
                        <mxPoint x="912" y="372" as="targetPoint"/>
                    </mxGeometry>
                </mxCell>
                <mxCell id="V0m47npN4N563cn-UdCl-4" value="PushData Request" style="text;html=1;strokeColor=none;fillColor=none;align=center;verticalAlign=middle;whiteSpace=wrap;rounded=0;" parent="_GKx4WZQEgGPNWmIFQ_N-1" vertex="1">
                    <mxGeometry x="675" y="342" width="110" height="30" as="geometry"/>
                </mxCell>
                <mxCell id="V0m47npN4N563cn-UdCl-5" value="" style="endArrow=classic;html=1;" parent="_GKx4WZQEgGPNWmIFQ_N-1" edge="1">
                    <mxGeometry width="50" height="50" relative="1" as="geometry">
                        <mxPoint x="910" y="412" as="sourcePoint"/>
                        <mxPoint x="585" y="412" as="targetPoint"/>
                    </mxGeometry>
                </mxCell>
                <mxCell id="V0m47npN4N563cn-UdCl-6" value="PushData Response 失败 TSO 不匹配" style="text;html=1;strokeColor=none;fillColor=none;align=center;verticalAlign=middle;whiteSpace=wrap;rounded=0;" parent="_GKx4WZQEgGPNWmIFQ_N-1" vertex="1">
                    <mxGeometry x="674" y="382" width="156" height="30" as="geometry"/>
                </mxCell>
            </root>
        </mxGraphModel>
    </diagram>
</mxfile>